<svg width="32" height="32" viewBox="0 0 32 32" fill="none" xmlns="http://www.w3.org/2000/svg">
<path d="M16 32C31.8767 32 32 24.8367 32 16C32 7.16333 31.8767 0 16 0C0.123333 0 0 7.16333 0 16C0 24.8367 0.123333 32 16 32Z" fill="#F7931A"/>
<path d="M21.4861 18.1964C21.2234 17.5743 20.7136 17.0587 19.9566 16.6499C21.1259 16.404 21.8157 15.6397 22.0262 14.3569C22.1061 13.8927 22.0853 13.4662 21.9637 13.0769C21.8419 12.6874 21.6289 12.3435 21.3237 12.0447C21.0188 11.7457 20.6694 11.4867 20.2767 11.2674C19.8838 11.0481 19.4207 10.8412 18.8878 10.647L19.583 8.05211L17.9872 7.6245L17.3112 10.1473C17.0348 10.0732 16.6116 9.96715 16.0414 9.8291L16.7229 7.28573L15.1268 6.85806L14.4315 9.45293C14.2016 9.39871 13.8656 9.31243 13.4234 9.19395L11.2291 8.59486L10.7766 10.2836L11.9269 10.5918C12.452 10.7325 12.6969 11.0484 12.6617 11.5392L11.8698 14.4945C11.939 14.513 11.9933 14.5314 12.0329 14.5493L11.867 14.5049L10.7579 18.6441C10.6089 18.9794 10.3616 19.1009 10.0161 19.0083L8.8659 18.7001L8.03965 20.4984L10.1124 21.0538C10.2437 21.089 10.4332 21.1416 10.6812 21.2114C10.9289 21.2815 11.1149 21.3332 11.2393 21.3665L10.5358 23.9922L12.1321 24.4199L12.8274 21.8251C13.1156 21.9099 13.5362 22.0261 14.0889 22.1743L13.3964 24.7587L14.9923 25.1863L15.6959 22.5606C16.2699 22.685 16.7862 22.7685 17.2451 22.8102C17.7041 22.852 18.1557 22.8463 18.5996 22.7922C19.0434 22.7383 19.4322 22.6272 19.766 22.4591C20.0999 22.2913 20.4044 22.0453 20.6803 21.7219C20.9555 21.3982 21.1829 20.9993 21.3617 20.5247C21.7076 19.5949 21.7489 18.8187 21.4861 18.1964ZM15.5759 11.6906C15.6242 11.7036 15.7612 11.7384 15.9866 11.7951C16.2122 11.8518 16.3996 11.8984 16.5491 11.9347C16.6986 11.9711 16.8966 12.0334 17.1434 12.1216C17.3901 12.2098 17.5951 12.2942 17.7586 12.3747C17.9221 12.4553 18.0971 12.5629 18.283 12.6973C18.4694 12.8318 18.6093 12.9723 18.7032 13.1189C18.7973 13.2655 18.864 13.4379 18.9033 13.6361C18.9429 13.8343 18.9323 14.0466 18.8716 14.2731C18.8201 14.4654 18.7421 14.6321 18.6377 14.7735C18.5334 14.9147 18.4045 15.0218 18.2517 15.095C18.099 15.1681 17.946 15.2265 17.7936 15.2702C17.6413 15.314 17.4566 15.3326 17.24 15.326C17.0234 15.3195 16.8354 15.3096 16.6761 15.2963C16.5167 15.283 16.3217 15.2511 16.0909 15.2002C15.8601 15.1493 15.6854 15.11 15.5671 15.082C15.4487 15.0539 15.2881 15.0108 15.0851 14.9528C14.8821 14.8948 14.7636 14.8611 14.7289 14.8518L15.576 11.6906L15.5759 11.6906L15.5759 11.6906ZM18.0551 19.8706C17.947 20.0109 17.8256 20.1257 17.6908 20.2147C17.5558 20.3034 17.3917 20.3699 17.1986 20.4137C17.0055 20.4577 16.822 20.4857 16.6485 20.498C16.4747 20.5106 16.2701 20.507 16.0347 20.4882C15.7988 20.4692 15.5942 20.4454 15.4202 20.4173C15.2464 20.3892 15.0407 20.3487 14.8029 20.2961C14.5654 20.2433 14.3808 20.1995 14.2495 20.1643C14.1183 20.1291 13.9529 20.0828 13.7534 20.0258C13.5538 19.9688 13.4266 19.9329 13.3712 19.9181L14.3039 16.4375C14.3591 16.4523 14.5241 16.4929 14.7989 16.5591C15.0738 16.6253 15.2973 16.6818 15.4701 16.7281C15.6428 16.7743 15.8786 16.8484 16.1771 16.9506C16.4755 17.0524 16.7229 17.1517 16.9193 17.2485C17.1154 17.3453 17.3246 17.4693 17.547 17.6209C17.7692 17.7724 17.9399 17.9303 18.0589 18.0946C18.1777 18.2591 18.2632 18.451 18.3153 18.671C18.3677 18.891 18.3606 19.1246 18.2944 19.3718C18.2428 19.5642 18.1632 19.7302 18.0551 19.8706Z" fill="white"/>
</svg>
