<svg width="32" height="32" viewBox="0 0 32 32" fill="none" xmlns="http://www.w3.org/2000/svg">
<path d="M16 32C31.8767 32 32 24.8367 32 16C32 7.16333 31.8767 0 16 0C0.123333 0 0 7.16333 0 16C0 24.8367 0.123333 32 16 32Z" fill="#2468E4"/>
<path d="M15.7128 24.5084L11.5395 17.7214C11.3512 17.4152 11.7428 17.0852 12.0345 17.3041L15.795 20.1268C15.9163 20.2178 16.0865 20.2178 16.2078 20.1268L19.9683 17.3041C20.26 17.0852 20.6516 17.4152 20.4633 17.7214L16.29 24.5084C16.1603 24.7194 15.8425 24.7194 15.7128 24.5084Z" fill="white"/>
<path d="M11.3718 14.7573L15.6997 6.83894C15.8262 6.6075 16.172 6.60972 16.2953 6.84276L20.6303 15.0384C20.7085 15.1862 20.6569 15.3669 20.5112 15.4559L16.1899 18.0912C16.0757 18.1609 15.9292 18.1578 15.8183 18.0834L11.4766 15.1708C11.3382 15.0779 11.2933 14.9008 11.3718 14.7573Z" fill="white"/>
</svg>
