<svg width="32" height="32" viewBox="0 0 32 32" fill="none" xmlns="http://www.w3.org/2000/svg">
<path d="M16 32C31.8767 32 32 24.8367 32 16C32 7.16333 31.8767 0 16 0C0.123333 0 0 7.16333 0 16C0 24.8367 0.123333 32 16 32Z" fill="#4FAA4D"/>
<path d="M17.8153 13.0772V10.8296H23.013V7.33334H8.81269V10.8296H14.01V13.0859C9.81174 13.3044 6.66666 14.2002 6.66666 15.2722C6.66666 16.3442 9.81174 17.2399 14.01 17.4585V24.4629C14.6529 24.5967 15.3183 24.6667 16 24.6667C16.6202 24.6667 17.2271 24.6086 17.8153 24.4975V17.4672C22.1009 17.2646 25.3333 16.359 25.3333 15.2722C25.3333 14.1854 22.1009 13.2798 17.8153 13.0772ZM16 16.6537C11.3169 16.6537 7.52057 15.9354 7.52057 15.0491C7.52057 14.2925 10.2872 13.6581 14.01 13.4889V16.0589C14.6412 16.1515 15.2771 16.198 15.9127 16.198C16.5487 16.198 17.1846 16.1515 17.8153 16.0589V13.4811C21.6259 13.6387 24.4791 14.2805 24.4791 15.0491C24.479 15.9354 20.6826 16.6537 16 16.6537Z" fill="white"/>
</svg>
